<svg width="10" height="10" viewBox="0 0 10 10" fill="none" xmlns="http://www.w3.org/2000/svg">
<path fill-rule="evenodd" clip-rule="evenodd" d="M0.52827 0.528575C0.788619 0.268226 1.21073 0.268226 1.47108 0.528575L4.99967 4.05717L8.52827 0.528575C8.78862 0.268226 9.21073 0.268226 9.47108 0.528575C9.73143 0.788925 9.73143 1.21103 9.47108 1.47138L5.94248 4.99998L9.47108 8.52857C9.73143 8.78892 9.73143 9.21103 9.47108 9.47138C9.21073 9.73173 8.78862 9.73173 8.52827 9.47138L4.99967 5.94279L1.47108 9.47138C1.21073 9.73173 0.788619 9.73173 0.52827 9.47138C0.26792 9.21103 0.26792 8.78892 0.52827 8.52857L4.05687 4.99998L0.52827 1.47138C0.26792 1.21103 0.26792 0.788925 0.52827 0.528575Z" fill="#999999"/>
</svg>
