<svg width="860" height="432" viewBox="0 0 860 432" fill="none" xmlns="http://www.w3.org/2000/svg">
    <path id="orbit"
        d="M799.616 261.507C796.611 280.951 783.045 297.884 760.949 311.84C738.853 325.794 708.282 336.734
    671.397 344.199C597.632 359.128 498.724 360.135 392.166 343.665C285.608 327.194 191.621 296.37
    125.805 259.867C92.895 241.614 67.0536 221.954 50.2029 201.98C33.3512 182.004 25.5311 161.766
    28.5366 142.321C31.5422 122.877 45.1078 105.944 67.2042 91.9886C89.2993 78.0341 119.87 67.0941
    156.755 59.6293C230.521 44.7006 329.429 43.6928 435.987 60.1634C542.544 76.634 636.532 107.458
    702.348 143.962C735.258 162.215 761.099 181.874 777.95 201.849C794.802 221.824 802.622 242.063
    799.616 261.507Z"
        stroke="url(#paint0_linear_2006_262)" stroke-opacity="0.71" />
    <g filter="url(#filter0_f_2006_262)">
        <path
            d="M799.616 261.507C796.611 280.951 783.045 297.884 760.949 311.84C738.853 325.794 708.282 336.734
    671.397 344.199C597.632 359.128 498.724 360.135 392.166 343.665C285.608 327.194 191.621 296.37
    125.805 259.867C92.895 241.614 67.0536 221.954 50.2029 201.98C33.3512 182.004 25.5311 161.766
    28.5366 142.321C31.5422 122.877 45.1078 105.944 67.2042 91.9886C89.2993 78.0341 119.87 67.0941
    156.755 59.6293C230.521 44.7006 329.429 43.6928 435.987 60.1634C542.544 76.634 636.532 107.458
    702.348 143.962C735.258 162.215 761.099 181.874 777.95 201.849C794.802 221.824 802.622 242.063
    799.616 261.507Z"
            stroke="url(#paint1_linear_2006_262)" />
    </g>
    <path
        d="M793.933 292.152C790.215 311.138 776.046 327.209 753.462 339.993C730.88 352.775 699.944 362.234 662.83 368.007C588.607 379.552 489.788 376.34 383.974 355.617C278.161 334.894 185.431 300.591 121.046 261.901C88.8518 242.554 63.7691 222.125 47.6775 201.768C31.5844 181.41 24.5245 161.181 28.2426 142.196C31.9608 123.21 46.1302 107.139 68.7138 94.3552C91.2955 81.5729 122.232 72.1145 159.345 66.3416C233.568 54.7965 332.388 58.0082 438.201 78.7313C544.015 99.4543 636.745 133.757 701.13 172.448C733.324 191.794 758.407 212.223 774.498 232.58C790.591 252.938 797.651 273.167 793.933 292.152Z"
        stroke="url(#paint2_linear_2006_262)" stroke-opacity="0.36" />
    <circle cx="273.213" cy="47.0392" r="25.1479" fill="#2068CD" />
    <circle cx="725.743" cy="171.7" r="33.8548" fill="#CD8E20" />
    <mask id="mask0_2006_262" style="mask-type:alpha" maskUnits="userSpaceOnUse" x="691" y="137"
        width="69" height="69">
        <circle cx="725.743" cy="171.7" r="33.8548" fill="#4520CD" />
    </mask>
    <g mask="url(#mask0_2006_262)">
</g>
    <circle cx="590.609" cy="95.7554" r="18.4926" fill="#20C4CD" />
    <mask id="mask1_2006_262" style="mask-type:alpha" maskUnits="userSpaceOnUse" x="572" y="77"
        width="38" height="38">
        <circle cx="590.609" cy="95.7554" r="18.4926" fill="#4520CD" />
    </mask>
    <g mask="url(#mask1_2006_262)">
</g>
    <circle cx="78.133" cy="234.806" r="45.9816" fill="#4520CD" />
    <mask id="mask2_2006_262" style="mask-type:alpha" maskUnits="userSpaceOnUse" x="32" y="188"
        width="93" height="93">
        <circle cx="78.133" cy="234.806" r="45.9816" fill="#4520CD" />
    </mask>
    <g mask="url(#mask2_2006_262)">
</g>
    <circle cx="357.021" cy="340.764" r="41.9832" fill="#2096CD" />
    <mask id="mask3_2006_262" style="mask-type:alpha" maskUnits="userSpaceOnUse" x="315" y="298"
        width="85" height="85">
        <circle cx="357.021" cy="340.764" r="41.9832" fill="#4520CD" />
    </mask>
    <g mask="url(#mask3_2006_262)">
</g>
    <circle cx="103.123" cy="71.8714" r="34.986" fill="#20C4CD" />
    <mask id="mask4_2006_262" style="mask-type:alpha" maskUnits="userSpaceOnUse" x="68" y="36"
        width="71" height="71">
        <circle cx="103.123" cy="71.8714" r="34.986" fill="#4520CD" />
    </mask>
    <g mask="url(#mask4_2006_262)">
</g>
    <circle cx="679.892" cy="333.767" r="34.986" fill="#E033E0" />
    <mask id="mask5_2006_262" style="mask-type:alpha" maskUnits="userSpaceOnUse" x="644"
        y="298"
        width="71" height="71">
        <circle cx="679.892" cy="333.767" r="34.986" fill="#4520CD" />
    </mask>
    <g mask="url(#mask5_2006_262)">
</g>
    <defs>
        <filter id="filter0_f_2006_262" x="24.9058" y="45.1209" width="778.341" height="313.586"
            filterUnits="userSpaceOnUse" color-interpolation-filters="sRGB">
            <feFlood flood-opacity="0" result="BackgroundImageFix" />
            <feBlend mode="normal" in="SourceGraphic" in2="BackgroundImageFix" result="shape" />
            <feGaussianBlur stdDeviation="1.25" result="effect1_foregroundBlur_2006_262" />
        </filter>
        <linearGradient id="paint0_linear_2006_262" x1="436.063" y1="59.6693" x2="392.09"
            y2="344.159" gradientUnits="userSpaceOnUse">
            <stop stop-color="#3349C0" />
            <stop offset="1" stop-color="#3066E5" />
        </linearGradient>
        <linearGradient id="paint1_linear_2006_262" x1="436.063" y1="59.6693" x2="392.09"
            y2="344.159" gradientUnits="userSpaceOnUse">
            <stop stop-color="#3349C0" />
            <stop offset="1" stop-color="#3066E5" />
        </linearGradient>
        <linearGradient id="paint2_linear_2006_262" x1="438.297" y1="78.2406" x2="383.878"
            y2="356.108" gradientUnits="userSpaceOnUse">
            <stop stop-color="#6251D5" />
            <stop offset="1" stop-color="#8F52D4" />
        </linearGradient>
    </defs>
</svg>